DataType=double
version=3
OpenSimVersion=4.5-2023-11-26-efcdfd3eb
endheader
time	EMG01_right_gast_med	EMG02_right_glut_max	EMG03_left_gast_med	EMG04_left_glut_max	EMG05_right_glut_med	EMG06_right_bic_fem	EMG07_right_rect_fem	EMG08_right_vast_lat	EMG09_right_vast_med	EMG10_right_tens_fasc_lat	EMG11_left_glut_med	EMG12_left_bic_fem	EMG13_left_rect_fem	EMG14_left_vast_lat	EMG15_left_vast_med	EMG16_left_tens_fasc_lat
1.68	82.16391633583558	19.0078322394009	-5.51774896846192	40.87631084728895	28.14389735126893	26.08524821614109	5.858891267288089	9.605970310105853	31.89880714181324	13.53096691047025	4.654641265340983	5.538483006211847	2.057637888609405	5.263300554328188	12.84937355089385	54.99960497030283
1.69	82.58503066014899	17.91138063759319	-5.127958249221765	40.43553925356917	26.1237499938993	25.03855729492561	5.855831736345877	9.262072875154896	30.32903049684281	12.77793652533592	4.959111148554493	5.972710897584609	2.216084746625985	5.462109305249654	11.93896526057651	54.74788851886528
1.7	82.87879835908036	16.78435087057338	-4.602144095958274	39.85210198025143	24.41836062145265	24.01443212363172	5.885712891982042	8.932511819962054	28.75999821956741	12.11819294609371	5.306475124642801	6.44028930272592	2.413145965387419	5.726494816813794	11.10043039800624	54.25160219584389
1.71	83.04933405023156	15.63844771618994	-3.957409191141516	39.13798001051295	23.05118309280574	23.01446723726962	5.948688673546202	8.617734940667217	27.20361271281248	11.56976852275647	5.698181417184833	6.939420584877227	2.649592635779455	6.059660486330907	10.34593561502882	53.52483508397029
1.72	83.10079757146151	14.48550726121034	-3.210254939340765	38.30682268406472	22.04331627149466	22.0402755641508	6.04438779715662	8.318012965241913	25.67145406942055	11.14956253348166	6.135463662466389	7.468020953600107	2.92575199118326	6.464016563955706	9.686367377267143	52.58480870164775
1.73	83.03712684481224	13.33737509438191	-2.376443725372873	37.37369325616054	21.4133289299088	21.09350101564434	6.171915319687514	8.033482956440769	24.17471327073669	10.8730670449122	6.619317179852861	8.023735930866835	3.241477896100999	6.941106889198243	9.131262235104661	51.45149919870088
1.74	82.86179612877734	12.20579231548139	-1.470892976366034	36.35478518610808	21.17707732784618	20.17581556547477	6.32986222933695	7.764188322845141	22.72412667281353	10.7541065756258	7.15047438014417	8.603956860770822	3.596126176738586	7.491544183130588	8.688752041841054	50.14723112422899
1.75	82.57761235451993	11.10228996071357	-0.5075994359975303	35.26711695683738	21.34751666594206	19.28890141157201	6.516323150711461	7.510112662101066	21.32991095865296	10.80459577893057	7.729379102602556	9.205838230847847	3.988535707607265	8.114955538037442	8.365523676941118	48.69625314951457
1.76	82.18656129084198	10.03809221451659	0.5004085544365067	34.12821438378803	21.93450870550642	18.43442061458093	6.728922135953337	7.271205418674382	20.00169858631009	11.0343193781882	8.356159833495497	9.826315430097678	4.417016189863249	8.809939733043018	8.166792799249619	47.12430494426133
1.77	81.6897128268881	9.02402857822555	1.541093448913707	32.95578975726889	22.94462822404651	17.61397573954039	6.964846433874419	7.047398638609554	18.74847447991277	11.45073849892162	9.030602051219175	10.46212252909306	4.879343508506508	9.574037841023397	8.096291231435794	45.4581831718092
1.78	81.08719110901554	8.070454920157092	2.603408564835362	31.76742678233638	24.38097095198486	16.82906534760691	7.220888044829915	6.838615414922845	17.57851502778558	12.05882732186952	9.752120236176291	11.10980984213288	5.372763436196092	10.40371835017698	8.156267662410734	43.7253136438376
1.79	80.37821123399023	7.187183024987565	3.677279018847077	30.58027924718369	26.24296568026862	16.08103789963066	7.493492740932809	6.644771432696314	16.49933029424425	12.86094364180458	10.51973024950913	11.76576134589676	5.894004276947887	11.29437775652361	8.347501354417139	41.9533360218742
1.8	79.56118004203472	6.383417958506148	4.753566828748976	29.41078988423531	28.52619367663173	15.37104705830284	7.778816059392141	6.465771278856891	15.51760993761484	13.8567364670682	11.33202278231977	12.4262122980247	6.439298832146162	12.24035732766931	8.669328481355631	40.16970674554129
1.81	78.63385465026356	5.667702316597594	5.824023548655131	28.27443431236987	31.22221956789474	14.70001078193342	8.072785573812217	6.301501129805373	14.63917295408358	15.04309323653001	12.18713843864226	13.0872675107566	7.004415840932549	13.23497653684472	9.119680671624149	38.40132495900014
1.82	77.59354937866765	5.0478662292703	6.881233865463392	27.18549361938423	34.31843940243692	14.0685761326978	8.371168519834065	6.151819272479776	13.86892116454945	16.41412859574703	13.08274481193782	13.74492072685369	7.584700823424828	14.27058357555106	9.695135269922455	36.67418538895785
1.83	76.43738010664049	4.530981838326507	7.918553613913302	26.15685829434496	37.79795330182817	13.47709135349942	8.669643615710095	6.016545699185991	13.21079627442894	17.96121602781473	14.01601573902359	14.3950754992156	8.175126074303957	15.33862337378363	10.39097671014308	35.01306173832926
1.84	75.16253442523482	4.123320897334167	8.930045606312779	25.19986576748504	41.63947132987921	12.92558639957823	8.963875713136495	5.895451755616575	12.66774027663369	19.67306304396862	14.98361286878074	15.0335678995526	8.770349419756995	16.4297235621487	11.20126819566544	33.44122410792378
1.85	73.76655529411386	3.830314208650806	9.910416493587491	24.32417340906512	45.81726159984125	12.41376269009433	9.249591773808708	5.788250564474422	12.24165895102725	21.53583012500273	15.98166984219793	15.65619123889779	9.364781199348991	17.5337986311415	12.11893264526224	31.98019384810424
1.86	72.24762518439421	3.656511838778123	10.8549576000975	23.53766820940662	50.30114929374662	11.94099239091103	9.522656598536418	5.694588740561794	11.93338833413208	23.53329309943402	17.00577975777983	16.25872279068532	9.952658692259355	18.6401721267746	13.13584160735265	30.64953878772787
1.87	70.60483781705297	3.605543396938934	11.75949234323918	22.84641352663409	55.05657442431662	11.50632709225289	9.779146696197362	5.614039748228246	11.74266431430247	25.64704802850029	18.05098713901032	16.83695234543798	10.528126886741	19.73771613341339	14.24291061241004	29.46671093359067
1.88	68.8384461077883	3.680078038414881	12.62033248528164	22.25463238827891	60.04471499597218	11.10851533676865	10.01542059296037	5.546099096598676	11.66809585040355	27.85675688140345	19.11178621625439	17.38671237662517	11.08532418829652	20.81500660421748	15.43019931029101	28.44692755585852
1.89	66.95007708177191	3.88178421747536	13.4342450814057	21.76472593883168	65.22268089103592	10.7460281327485	10.22818370456998	5.490181429780505	11.70714263650507	30.14043137100001	20.18212782041349	17.90390966094954	11.61847145154703	21.86049234707471	16.68701479245208	27.60309521322233
1.9	64.94290613953724	4.211289565990883	14.19843158711969	21.37732474160533	70.54378257781836	10.4170914269078	10.41454566347574	5.445619478164972	11.85609837635687	32.47475134691048	21.25543741004297	18.38455823517035	12.1219625910303	22.86267470269027	18.00201667679397	26.94577486622828
1.91	62.82178358695477	4.66814160736375	14.9105201715148	21.09136982794246	75.95787774586489	10.11972455308065	10.57206779760649	5.411664787151219	12.11008121023964	34.83541311962352	22.32464664789456	18.8248134400508	12.59045491080917	23.81029421691603	19.36332273537892	26.48318485820123
1.92	60.59330640392621	5.25077031213679	15.56857185739236	20.90421982226843	81.41179800198536	9.851783835817528	10.69879841261576	5.387490099710131	12.46303315203404	37.19750201701778	23.38224050962904	19.22100660264886	13.01895714308833	24.6925199643634	20.7586140969941	26.22123724821056
1.93	58.2658293260344	5.956453756481385	16.17110067715002	20.81178034611599	86.84985640927667	9.611010616710336	10.79329379276878	5.372193230536277	12.90773055015058	39.53588246692627	24.42032121300359	19.56967995791	13.402913009394	25.49913668486998	22.17523948929453	26.16360185003844
1.94	55.84941253676603	6.781288364865561	16.71710758465442	20.80865216200128	92.2144348319737	9.395082839816384	10.85462357241888	5.36480224955755	13.43580761474869	41.82559817164578	25.43068944496607	19.8676218456795	13.73827798146461	26.22072462265137	23.60031864254638	26.31179157090552
